<?xml version="1.0" encoding="utf-8"?>
<!-- Generator: Adobe Illustrator 27.0.0, SVG Export Plug-In . SVG Version: 6.00 Build 0)  -->
<svg version="1.1" id="_レイヤー_2" xmlns="http://www.w3.org/2000/svg" xmlns:xlink="http://www.w3.org/1999/xlink" x="0px"
	 y="0px" viewBox="0 0 290.9 421.3" style="enable-background:new 0 0 290.9 421.3;" xml:space="preserve">
<style type="text/css">
	.st0{fill:#444444;}
</style>
<g id="_レイヤー_3">
	<g>
		<polygon class="st0" points="17.5,0 29,0 51.5,38.7 73.9,0 85.3,0 56.4,49.8 56.4,158.6 46.6,158.6 46.6,49.8 		"/>
		<path class="st0" d="M75.2,64.9H85v70.3c0,0,0.4,14.9,14.6,14.9s14.6-15.1,14.6-15.1V64.9h9.4l0.5,70.1c0,0-0.7,24.9-24.5,24.9
			s-24.5-24.9-24.5-24.9L75.2,64.9L75.2,64.9z"/>
		<polygon class="st0" points="143,0 152.8,0 152.4,95.9 210.9,0 222.3,0 178.2,72.4 222.1,156.6 211,156.6 172.3,82.2 152.4,114.9 
			152.2,156.6 142.4,156.6 		"/>
		<rect x="231.8" y="86.5" class="st0" width="9.6" height="70.1"/>
		<path class="st0" d="M35.5,139.8h-8.5c0,0-4.7,0.1-9.7,3.5s-7.4,9.2-7.4,14.1s1.9,9.4,4.3,12.1s6.4,6.5,12.9,6.4h185.8v9.7H56.4
			v78.9h-9.8v-78.9H26.8c0,0-11.2-0.1-18.6-7.9S0,163.2,0,157.9s1.9-13.6,8.1-19.8S22.2,130,27,130h8.5L35.5,139.8L35.5,139.8z"/>
		<path class="st0" d="M143.4,421.3c-34.1,0-57.2-8.3-72.7-26.1c-16.3-18.7-24-47.5-24.2-90.6c-3.2,2-7,3.2-11.1,3.2
			c-11.5,0-20.9-9.4-20.9-20.9s9.4-20.9,20.9-20.9s20.9,9.4,20.9,20.9v16c0,41,7.1,69.1,21.8,85.9c13.5,15.5,34.2,22.8,65.3,22.8
			c33.8,0,54.6-6.6,67.6-21.5c14.1-16.1,20.6-43.8,20.6-87.2h9.8c0,46.6-7.1,75.5-23,93.7C203.4,413.6,180.3,421.3,143.4,421.3
			L143.4,421.3z M35.5,275.7c-6.1,0-11.1,5-11.1,11.1s5,11.1,11.1,11.1s11.1-5,11.1-11.1S41.6,275.7,35.5,275.7z"/>
		<rect x="231.7" y="200.6" class="st0" width="9.8" height="86.3"/>
		<rect x="228.1" y="172.4" class="st0" width="16.9" height="16.9"/>
		<rect x="230.2" y="64.9" class="st0" width="12.8" height="12.8"/>
		<path class="st0" d="M190.6,275.7c-0.4,0-0.9,0-1.3,0h-1.4c-11.7,0-21.2-9.5-21.2-21.2s9.5-21.2,21.2-21.2s21.2,9.5,21.2,21.2
			c0,2.7-2.2,4.9-4.9,4.9h-26.7c1.8,3.9,5.8,6.5,10.3,6.5h1.4c3.8,0,8.4,0,10-0.6c0,0,0-0.1,0-0.1h0.2c0,0,0,0,0.1,0c0,0,0,0,0,0
			h9.6c0,2.9-0.9,5.2-2.7,7C203,275.6,197.8,275.8,190.6,275.7L190.6,275.7z M177.5,249.6h20.7c-1.8-3.9-5.8-6.5-10.3-6.5
			S179.3,245.8,177.5,249.6z"/>
		<path class="st0" d="M144,372.7c-20.2,0-37.4-13.1-43.6-31.2c-3.2,2.5-7.2,3.9-11.5,3.9c-10.4,0-18.8-8.5-18.8-18.8
			s8.4-18.8,18.8-18.8s18.8,8.5,18.8,18.8c0,20,16.3,36.3,36.3,36.3s36.3-16.3,36.3-36.3h9.8C190.1,352.1,169.4,372.7,144,372.7
			L144,372.7z M88.9,317.6c-5,0-9,4.1-9,9s4.1,9,9,9s9-4.1,9-9S93.9,317.6,88.9,317.6z"/>
		<path class="st0" d="M263,185.8h-6.6V176h6.6c10,0,18.1-8.1,18.1-18.1s-10.9-16.6-15.2-18.4c-11.8-4.1-14.3-12-14.3-18
			c0-9.4,7.7-16.5,17.9-16.5v9.8c-4,0-8.1,2.3-8.1,6.7c0,3.2,0.9,6.4,7.8,8.7c0.1,0,0.1,0.1,0.2,0.1c7.5,2.9,21.6,12.4,21.6,27.5
			S278.4,185.8,263,185.8L263,185.8z"/>
		<path class="st0" d="M100.2,275.7c-11.7,0-21.2-9.5-21.2-21.2s9.5-21.2,21.2-21.2s21.2,9.5,21.2,21.2v21.2h-9.8v-3.4
			C108.4,274.5,104.4,275.7,100.2,275.7z M100.2,243.1c-6.3,0-11.4,5.1-11.4,11.4s5.1,11.4,11.4,11.4s11.4-5.1,11.4-11.4
			S106.5,243.1,100.2,243.1z"/>
	</g>
</g>
</svg>
